<mxfile host="65bd71144e">
    <diagram id="pvt0hsjVH1Pvn447Bt1C" name="第 1 页">
        <mxGraphModel dx="1740" dy="395" grid="1" gridSize="10" guides="1" tooltips="1" connect="1" arrows="1" fold="1" page="1" pageScale="1" pageWidth="827" pageHeight="1169" math="0" shadow="0">
            <root>
                <mxCell id="0"/>
                <mxCell id="1" parent="0"/>
                <mxCell id="2" value="顶部导航" style="rounded=0;whiteSpace=wrap;html=1;" parent="1" vertex="1">
                    <mxGeometry x="70" y="140" width="700" height="50" as="geometry"/>
                </mxCell>
                <mxCell id="3" value="" style="rounded=0;whiteSpace=wrap;html=1;" parent="1" vertex="1">
                    <mxGeometry x="70" y="210" width="700" height="270" as="geometry"/>
                </mxCell>
                <mxCell id="4" value="文章" style="rounded=0;whiteSpace=wrap;html=1;" parent="1" vertex="1">
                    <mxGeometry x="120" y="250" width="610" height="60" as="geometry"/>
                </mxCell>
                <mxCell id="5" value="文章" style="rounded=0;whiteSpace=wrap;html=1;" parent="1" vertex="1">
                    <mxGeometry x="120" y="330" width="610" height="60" as="geometry"/>
                </mxCell>
                <mxCell id="6" value="文章" style="rounded=0;whiteSpace=wrap;html=1;" parent="1" vertex="1">
                    <mxGeometry x="120" y="400" width="610" height="60" as="geometry"/>
                </mxCell>
                <mxCell id="7" value="老喻的博客系统" style="rounded=0;whiteSpace=wrap;html=1;" parent="1" vertex="1">
                    <mxGeometry x="90" y="150" width="120" height="30" as="geometry"/>
                </mxCell>
                <mxCell id="23" style="edgeStyle=orthogonalEdgeStyle;html=1;exitX=1;exitY=0.25;exitDx=0;exitDy=0;entryX=1;entryY=0.5;entryDx=0;entryDy=0;" parent="1" source="8" target="18" edge="1">
                    <mxGeometry relative="1" as="geometry">
                        <Array as="points">
                            <mxPoint x="900" y="158"/>
                            <mxPoint x="900" y="700"/>
                        </Array>
                    </mxGeometry>
                </mxCell>
                <mxCell id="8" value="登录/后台" style="rounded=0;whiteSpace=wrap;html=1;" parent="1" vertex="1">
                    <mxGeometry x="680" y="150" width="80" height="30" as="geometry"/>
                </mxCell>
                <mxCell id="9" value="顶部导航" style="rounded=0;whiteSpace=wrap;html=1;" parent="1" vertex="1">
                    <mxGeometry x="-760" y="140" width="700" height="50" as="geometry"/>
                </mxCell>
                <mxCell id="10" value="" style="rounded=0;whiteSpace=wrap;html=1;" parent="1" vertex="1">
                    <mxGeometry x="-760" y="210" width="700" height="390" as="geometry"/>
                </mxCell>
                <mxCell id="14" value="老喻的博客系统" style="rounded=0;whiteSpace=wrap;html=1;" parent="1" vertex="1">
                    <mxGeometry x="-740" y="150" width="120" height="30" as="geometry"/>
                </mxCell>
                <mxCell id="15" value="退出" style="rounded=0;whiteSpace=wrap;html=1;" parent="1" vertex="1">
                    <mxGeometry x="-150" y="150" width="80" height="30" as="geometry"/>
                </mxCell>
                <mxCell id="16" value="前台" style="text;html=1;strokeColor=none;fillColor=none;align=center;verticalAlign=middle;whiteSpace=wrap;rounded=0;" parent="1" vertex="1">
                    <mxGeometry x="414" y="80" width="60" height="30" as="geometry"/>
                </mxCell>
                <mxCell id="17" value="后台" style="text;html=1;strokeColor=none;fillColor=none;align=center;verticalAlign=middle;whiteSpace=wrap;rounded=0;" parent="1" vertex="1">
                    <mxGeometry x="-443" y="90" width="60" height="30" as="geometry"/>
                </mxCell>
                <mxCell id="24" style="edgeStyle=orthogonalEdgeStyle;html=1;exitX=0;exitY=0.5;exitDx=0;exitDy=0;entryX=0.75;entryY=1;entryDx=0;entryDy=0;" parent="1" source="18" target="10" edge="1">
                    <mxGeometry relative="1" as="geometry"/>
                </mxCell>
                <mxCell id="25" value="跳转到后台" style="edgeLabel;html=1;align=center;verticalAlign=middle;resizable=0;points=[];" parent="24" vertex="1" connectable="0">
                    <mxGeometry x="-0.3165" y="1" relative="1" as="geometry">
                        <mxPoint as="offset"/>
                    </mxGeometry>
                </mxCell>
                <mxCell id="18" value="" style="rounded=0;whiteSpace=wrap;html=1;" parent="1" vertex="1">
                    <mxGeometry x="80" y="570" width="690" height="290" as="geometry"/>
                </mxCell>
                <mxCell id="19" value="用户名" style="rounded=0;whiteSpace=wrap;html=1;" parent="1" vertex="1">
                    <mxGeometry x="294" y="630" width="296" height="30" as="geometry"/>
                </mxCell>
                <mxCell id="20" value="密码" style="rounded=0;whiteSpace=wrap;html=1;" parent="1" vertex="1">
                    <mxGeometry x="294" y="680" width="296" height="30" as="geometry"/>
                </mxCell>
                <mxCell id="21" value="记住" style="rounded=0;whiteSpace=wrap;html=1;" parent="1" vertex="1">
                    <mxGeometry x="294" y="730" width="26" height="30" as="geometry"/>
                </mxCell>
                <mxCell id="22" value="登录" style="rounded=0;whiteSpace=wrap;html=1;" parent="1" vertex="1">
                    <mxGeometry x="296" y="780" width="296" height="30" as="geometry"/>
                </mxCell>
                <mxCell id="26" value="前台" style="rounded=0;whiteSpace=wrap;html=1;" parent="1" vertex="1">
                    <mxGeometry x="-260" y="150" width="80" height="30" as="geometry"/>
                </mxCell>
                <mxCell id="27" value="侧边栏导航" style="rounded=0;whiteSpace=wrap;html=1;" parent="1" vertex="1">
                    <mxGeometry x="-740" y="230" width="140" height="350" as="geometry"/>
                </mxCell>
                <mxCell id="28" value="业务内容区" style="rounded=0;whiteSpace=wrap;html=1;" parent="1" vertex="1">
                    <mxGeometry x="-580" y="230" width="500" height="350" as="geometry"/>
                </mxCell>
                <mxCell id="29" value="文章管理" style="rounded=0;whiteSpace=wrap;html=1;" parent="1" vertex="1">
                    <mxGeometry x="-730" y="240" width="120" height="30" as="geometry"/>
                </mxCell>
                <mxCell id="30" value="业务内容区" style="rounded=0;whiteSpace=wrap;html=1;" vertex="1" parent="1">
                    <mxGeometry x="-760" y="810" width="500" height="350" as="geometry"/>
                </mxCell>
            </root>
        </mxGraphModel>
    </diagram>
</mxfile>